<svg width="58" height="58" viewBox="0 0 58 58" fill="none" xmlns="http://www.w3.org/2000/svg">
<g filter="url(#filter0_d_2680_23109)">
<path d="M26.3516 5.75941C27.796 4.25477 30.204 4.25477 31.6484 5.75941C32.5468 6.69541 33.8736 7.08735 35.1363 6.78928C37.156 6.31254 39.175 7.63864 39.581 9.67371C39.8354 10.9493 40.7433 12.0166 41.9674 12.4564C43.9274 13.1606 44.9136 15.3656 44.1626 17.3082C43.6922 18.525 43.8866 19.9171 44.6792 20.9532C45.9498 22.6142 45.6133 25.0028 43.9262 26.2384C42.8751 27.0083 42.3033 28.2905 42.415 29.5886C42.5931 31.6577 41.0297 33.5009 38.9563 33.6185C37.6597 33.692 36.4923 34.453 35.8923 35.6047C34.9321 37.4481 32.622 38.1418 30.8178 37.1099C29.6915 36.4658 28.3085 36.4658 27.1822 37.1099C25.378 38.1418 23.0679 37.4481 22.1077 35.6047C21.5077 34.453 20.3403 33.692 19.0437 33.6185C16.9703 33.5009 15.4069 31.6577 15.585 29.5886C15.6967 28.2905 15.1249 27.0083 14.0738 26.2384C12.3867 25.0028 12.0502 22.6142 13.3208 20.9532C14.1134 19.9171 14.3078 18.525 13.8374 17.3082C13.0864 15.3656 14.0726 13.1606 16.0326 12.4564C17.2567 12.0166 18.1646 10.9493 18.419 9.67371C18.825 7.63864 20.844 6.31254 22.8637 6.78928C24.1264 7.08735 25.4532 6.69541 26.3516 5.75941Z" fill="url(#paint0_linear_2680_23109)"/>
<path d="M26.3516 5.75941C27.796 4.25477 30.204 4.25477 31.6484 5.75941C32.5468 6.69541 33.8736 7.08735 35.1363 6.78928C37.156 6.31254 39.175 7.63864 39.581 9.67371C39.8354 10.9493 40.7433 12.0166 41.9674 12.4564C43.9274 13.1606 44.9136 15.3656 44.1626 17.3082C43.6922 18.525 43.8866 19.9171 44.6792 20.9532C45.9498 22.6142 45.6133 25.0028 43.9262 26.2384C42.8751 27.0083 42.3033 28.2905 42.415 29.5886C42.5931 31.6577 41.0297 33.5009 38.9563 33.6185C37.6597 33.692 36.4923 34.453 35.8923 35.6047C34.9321 37.4481 32.622 38.1418 30.8178 37.1099C29.6915 36.4658 28.3085 36.4658 27.1822 37.1099C25.378 38.1418 23.0679 37.4481 22.1077 35.6047C21.5077 34.453 20.3403 33.692 19.0437 33.6185C16.9703 33.5009 15.4069 31.6577 15.585 29.5886C15.6967 28.2905 15.1249 27.0083 14.0738 26.2384C12.3867 25.0028 12.0502 22.6142 13.3208 20.9532C14.1134 19.9171 14.3078 18.525 13.8374 17.3082C13.0864 15.3656 14.0726 13.1606 16.0326 12.4564C17.2567 12.0166 18.1646 10.9493 18.419 9.67371C18.825 7.63864 20.844 6.31254 22.8637 6.78928C24.1264 7.08735 25.4532 6.69541 26.3516 5.75941Z" fill="url(#paint1_linear_2680_23109)" fill-opacity="0.1"/>
<path d="M16.5195 21.2439C16.5195 14.3514 22.107 8.76392 28.9995 8.76392C35.892 8.76392 41.4795 14.3514 41.4795 21.2439V21.5006C41.4795 28.3931 35.892 33.9805 28.9995 33.9805C22.107 33.9805 16.5195 28.3931 16.5195 21.5006V21.2439Z" fill="black" fill-opacity="0.04"/>
<path d="M22.8971 21.2439C22.8971 17.8736 25.6292 15.1415 28.9995 15.1415C32.3698 15.1415 35.1019 17.8736 35.1019 21.2439V21.5006C35.1019 24.8708 32.3698 27.603 28.9995 27.603C25.6292 27.603 22.8971 24.8708 22.8971 21.5006V21.2439Z" stroke="#FDFDFD" stroke-opacity="0.3" stroke-width="12.7551"/>
<path opacity="0.8" d="M26.9441 23.6504L24.5478 21.2295C24.4188 21.0988 24.2436 21.0254 24.0609 21.0254C23.8782 21.0254 23.7031 21.0988 23.5741 21.2295C23.3047 21.5016 23.3047 21.9411 23.5741 22.2132L26.4607 25.1295C26.73 25.4016 27.165 25.4016 27.4344 25.1295L34.7406 17.7481C35.01 17.476 35.01 17.0365 34.7406 16.7644C34.6116 16.6337 34.4364 16.5603 34.2538 16.5603C34.0711 16.5603 33.8959 16.6337 33.7669 16.7644L26.9441 23.6504Z" fill="#F0F0F0" stroke="#FAF9F9" stroke-width="2.55103"/>
<path d="M41.6489 21.4865C41.6489 28.4722 35.9859 34.1352 29.0002 34.1352C22.0146 34.1352 16.3516 28.4722 16.3516 21.4865C16.3516 14.5009 22.0146 8.83789 29.0002 8.83789C35.9859 8.83789 41.6489 14.5009 41.6489 21.4865ZM18.9556 21.4865C18.9556 27.034 23.4527 31.5311 29.0002 31.5311C34.5477 31.5311 39.0448 27.034 39.0448 21.4865C39.0448 15.9391 34.5477 11.4419 29.0002 11.4419C23.4527 11.4419 18.9556 15.9391 18.9556 21.4865Z" fill="url(#paint2_linear_2680_23109)" fill-opacity="0.5"/>
</g>
<defs>
<filter id="filter0_d_2680_23109" x="-1" y="-1" width="60" height="60" filterUnits="userSpaceOnUse" color-interpolation-filters="sRGB">
<feFlood flood-opacity="0" result="BackgroundImageFix"/>
<feColorMatrix in="SourceAlpha" type="matrix" values="0 0 0 0 0 0 0 0 0 0 0 0 0 0 0 0 0 0 127 0" result="hardAlpha"/>
<feOffset dy="8"/>
<feGaussianBlur stdDeviation="6"/>
<feComposite in2="hardAlpha" operator="out"/>
<feColorMatrix type="matrix" values="0 0 0 0 0.917647 0 0 0 0 0.690196 0 0 0 0 0.12549 0 0 0 0.4 0"/>
<feBlend mode="normal" in2="BackgroundImageFix" result="effect1_dropShadow_2680_23109"/>
<feBlend mode="normal" in="SourceGraphic" in2="effect1_dropShadow_2680_23109" result="shape"/>
</filter>
<linearGradient id="paint0_linear_2680_23109" x1="17.3211" y1="6.37173" x2="37.0669" y2="37.4955" gradientUnits="userSpaceOnUse">
<stop stop-color="#FFE092"/>
<stop offset="1" stop-color="#E3A302"/>
</linearGradient>
<linearGradient id="paint1_linear_2680_23109" x1="4.81756" y1="0.187988" x2="32.1644" y2="48.9997" gradientUnits="userSpaceOnUse">
<stop stop-color="white"/>
<stop offset="1" stop-color="white" stop-opacity="0"/>
</linearGradient>
<linearGradient id="paint2_linear_2680_23109" x1="29.0002" y1="8.83789" x2="29.0002" y2="34.1352" gradientUnits="userSpaceOnUse">
<stop stop-color="white"/>
<stop offset="0.0001" stop-color="white" stop-opacity="0.81"/>
<stop offset="1" stop-color="white" stop-opacity="0"/>
</linearGradient>
</defs>
</svg>
