<svg width="96" height="34" viewBox="0 0 96 34" fill="none" xmlns="http://www.w3.org/2000/svg">
<g id="eme.e5ad75db.svg" clip-path="url(#clip0_2680_23434)">
<g id="Group">
<g id="Group_2">
<path id="Vector" d="M57.4565 19.6608L57.4731 22.259L44.5068 22.2673V9.91528H57.4814V12.472H47.9766V14.7133H55.9374V17.3697H47.9766L47.9684 19.6608H57.4565Z" fill="white"/>
<path id="Vector_2" d="M77.5874 22.3088H74.0507L74.059 17.4277L69.817 21.2296L65.4923 17.2866V22.3088H62.0391V9.94019L69.8004 17.3448L77.5874 10.1145V22.3088Z" fill="white"/>
<path id="Vector_3" d="M94.8444 19.6608L94.861 22.259L81.8945 22.2673V9.91528H94.8693V12.472H85.3646V14.7133H93.3248V17.3697H85.3646L85.3563 19.6608H94.8444Z" fill="white"/>
<path id="Vector_4" d="M47.7789 25.093L51.0477 30.0077H49.5587L47.7887 27.4018L45.9926 30.0044L44.5068 30.0077L47.7789 25.093Z" fill="white"/>
<path id="Vector_5" d="M57.5008 28.9398L57.5074 29.9979H55.326C54.5204 29.9958 53.8292 29.7562 53.2523 29.2795C52.6928 28.8158 52.4131 28.2574 52.4131 27.6043V27.4866C52.4131 26.8511 52.6928 26.3002 53.2523 25.8343C53.79 25.3924 54.4835 25.154 55.3325 25.1191H55.3358V25.1224H57.5008L57.5074 26.2033H55.3422C54.8372 26.2121 54.4567 26.3617 54.201 26.6524C53.9452 26.9429 53.8173 27.2548 53.8173 27.5879C53.8173 27.921 53.9446 28.2345 54.1993 28.5284C54.4541 28.8224 54.8274 28.9595 55.3195 28.9398H57.5008Z" fill="white"/>
<path id="Vector_6" d="M62.5133 25.093L65.7822 30.0077H64.2931L62.5231 27.4018L60.7271 30.0044L59.2412 30.0077L62.5133 25.093Z" fill="white"/>
<path id="Vector_7" d="M68.4833 26.2326L68.4926 28.9594H69.7334C70.2253 28.979 70.5986 28.8419 70.8539 28.5479C71.1086 28.254 71.2355 27.9405 71.2355 27.6075C71.2355 27.2744 71.1079 26.9625 70.8525 26.6719C70.5965 26.3813 70.2162 26.2349 69.711 26.2326H68.4833ZM71.8004 25.8539C72.3603 26.3197 72.64 26.8706 72.64 27.5063V27.6237C72.64 28.2769 72.3603 28.8353 71.8004 29.299C71.2238 29.7758 70.5326 30.0142 69.7275 30.0142V29.9946H67.1279V25.1419H69.7176V25.1387H69.7209C70.5694 25.1736 71.2633 25.4119 71.8004 25.8539Z" fill="white"/>
<path id="Vector_8" d="M79.364 28.9757L79.3695 29.9977L74.2695 30.0011V25.1418H79.373V26.1476H75.6344V27.0294H78.7659V28.0744H75.6344L75.6309 28.9757H79.364Z" fill="white"/>
<path id="Vector_9" d="M87.2825 30.0174H85.8913L85.8948 28.0972L84.226 29.5928L82.5253 28.0417V30.0174H81.166V25.1516L84.2191 28.0646L87.2825 25.2202V30.0174Z" fill="white"/>
<path id="Vector_10" d="M91.2268 27.8165L88.8926 25.1484H90.6321L91.9255 26.618L93.2654 25.1484H95.0154L92.6145 27.8065V30.0011L91.2268 30.0076V27.8165Z" fill="white"/>
<path id="Vector_11" d="M93.3281 17.347H81.8916V14.7041H93.3281V17.347Z" fill="white"/>
<path id="Vector_12" d="M81.8916 15.0974H85.3485V21.7438H81.8916V15.0974Z" fill="white"/>
<path id="Vector_13" d="M94.8734 22.284H81.8916V19.6411H94.8734V22.284Z" fill="white"/>
<path id="Vector_14" d="M11.6865 21.564L14.2059 20.4883L11.6865 19.3843V21.564Z" fill="white"/>
<path id="Vector_15" d="M11.6865 26.6026L14.2059 25.527L11.6865 24.4229V26.6026Z" fill="white"/>
<path id="Vector_16" d="M7.96387 14.6709V28.0509L21.1846 33.6539V30.4606L11.7005 26.4563V24.5597L21.1846 28.3647V25.3842L11.7005 21.3798V19.4831L21.1846 23.2882L30.6808 19.4831V29.557L34.3467 27.9755V14.6709H7.96387Z" fill="white"/>
<path id="Vector_17" d="M7.96387 14.6709L20.9503 9.19214L34.3467 14.6709L21.1552 20.2759L7.96387 14.6709Z" fill="white"/>
<path id="Vector_18" d="M21.1846 25.3842L28.4315 22.2839V25.4339L21.1846 28.5011V25.3842Z" fill="white"/>
<path id="Vector_19" d="M21.1846 30.5372L30.5532 26.5293L30.6808 29.5572L21.1846 33.6541V30.5372Z" fill="white"/>
<path id="Vector_20" d="M21.8795 0.3479L0.816406 8.73393L21.2 17.12L42.2628 8.73393L21.8795 0.3479Z" fill="white"/>
<path id="Vector_21" d="M22.6105 8.44426C22.6105 9.0208 21.9997 9.48799 21.2463 9.48799C20.4927 9.48799 19.8818 9.0208 19.8818 8.44426C19.8818 7.86807 20.4927 7.40088 21.2463 7.40088C21.9997 7.40088 22.6105 7.86807 22.6105 8.44426Z" fill="white"/>
<path id="Vector_22" d="M37.4051 13.9913L37.1582 14.4733L21.791 9.00833L22.0382 8.52637L37.4051 13.9913Z" fill="white"/>
<path id="Vector_23" d="M22.0389 8.52637L21.792 9.00827L32.2409 12.7241L32.9966 12.4235L22.0389 8.52637Z" fill="white"/>
<path id="Vector_24" d="M37.7804 30.0915H36.1963L36.6676 13.9949H37.407L37.7804 30.0915Z" fill="white"/>
<path id="Vector_25" d="M27.0576 20.913V28.0465L30.681 29.5563V19.4409L27.0576 20.913Z" fill="white"/>
</g>
</g>
</g>
<defs>
<clipPath id="clip0_2680_23434">
<rect width="94.3673" height="34" fill="white" transform="translate(0.816406 0.000976562)"/>
</clipPath>
</defs>
</svg>
