<svg width="102" height="24" viewBox="0 0 102 24" fill="none" xmlns="http://www.w3.org/2000/svg">
<g id="Clip path group">
<mask id="mask0_2238_20513" style="mask-type:luminance" maskUnits="userSpaceOnUse" x="0" y="0" width="102" height="24">
<g id="clip0_216_91944">
<path id="Vector" d="M0 0.5H101.113V23.5H0V0.5Z" fill="white"/>
</g>
</mask>
<g mask="url(#mask0_2238_20513)">
<g id="Group">
<path id="Vector_2" d="M27.4126 0.5H0.000976562V23.5H27.4126V0.5Z" fill="#D10014"/>
<path id="Vector_3" d="M23.0841 20.3208C24.4995 20.3208 25.6466 19.2427 25.6466 17.9137C25.6466 16.5847 24.4995 15.5073 23.0849 15.5073C21.6695 15.5073 20.5224 16.5855 20.5224 17.9137C20.5224 19.2434 21.6695 20.3208 23.0841 20.3208ZM3.54061 3.77734H11.8051C14.4777 3.77734 16.3243 4.43356 17.4977 5.55913C18.5253 6.49853 19.0457 7.76569 19.0457 9.38287V9.42887C19.0457 11.9395 17.6226 13.6041 15.451 14.4716L19.6212 20.1936H14.0278L10.5037 15.2285H8.3848V20.2008H3.53906L3.54061 3.77734ZM11.5801 11.6556C13.2274 11.6556 14.1783 10.9052 14.1783 9.70991V9.66247C14.1783 8.37303 13.1778 7.71681 11.5553 7.71681H8.3848V11.6556H11.5801Z" fill="white"/>
<path id="Vector_4" d="M101.112 0.5H30.1416V23.5H101.112V0.5Z" fill="#D10014"/>
<path id="Vector_5" d="M45.6932 3.64063V7.18119H48.5481V11.2227H43.5015V7.48953C43.5015 6.25831 43.0516 5.30884 42.1512 4.64113C41.2508 3.97269 40.1231 3.63991 38.7674 3.64063H33.6797L34.463 7.18119H38.1795C38.4409 7.18119 38.5712 7.24588 38.5712 7.37381V11.2227H38.1795C37.4226 11.2227 36.8688 11.4405 36.5183 11.8768C36.1669 12.3131 35.9909 12.9032 35.9886 13.6471C35.9886 13.9288 36.1126 14.3076 36.3608 14.7827C36.6354 15.2923 36.9914 15.7602 37.4171 16.1677C37.8949 16.6319 38.4501 17.0219 39.0613 17.3228C39.7171 17.6473 40.4509 17.8125 41.1942 17.8029C42.0791 17.8029 42.6856 17.5592 43.0121 17.0719C43.3338 16.5998 43.5038 16.0526 43.5022 15.4943V15.1076H48.5481V20.3789H53.2046V7.18119H56.7978V20.3818H61.4543V7.18119H70.0623V9.95269C70.0646 10.1899 70.0514 10.4285 70.022 10.6643C69.9956 10.8562 69.8521 10.9525 69.5923 10.9525C69.3829 10.9525 69.0967 10.8245 68.7314 10.5687C68.359 10.3061 68.0298 9.99475 67.7542 9.64435L67.4075 9.18435L63.964 11.7611C64.747 12.8197 65.5694 13.853 66.4296 14.8589C67.2363 15.8098 68.0709 16.7402 68.9323 17.6491C69.8243 18.6035 70.7379 19.5405 71.6724 20.4594L75.3889 17.9574C74.9572 17.5596 74.5394 17.149 74.1364 16.7262C73.7703 16.3668 73.3732 15.9564 72.9435 15.4943C72.5043 15.0212 72.0674 14.5464 71.6328 14.0697C72.4632 14.0043 73.2533 13.7099 73.9014 13.2244C74.5536 12.7364 74.9057 12.0694 74.9592 11.2227V7.18119H90.2953V8.52813H84.857C83.9515 8.51027 83.0539 8.68741 82.2348 9.04563C81.5177 9.36575 80.8735 9.81029 80.337 10.3552C79.8412 10.862 79.45 11.4489 79.183 12.0867C78.9339 12.6692 78.8029 13.2893 78.7967 13.9159C78.7967 15.431 79.3311 16.8484 80.3998 18.1694C81.4686 19.4905 83.0468 20.4083 85.1339 20.9244L87.912 17.5391C87.4043 17.4062 86.9129 17.2251 86.4454 16.9986C85.981 16.7798 85.5475 16.5087 85.1548 16.1914C84.7906 15.8996 84.48 15.5549 84.235 15.1708C84.0097 14.8285 83.8881 14.4362 83.8829 14.0352C83.8829 13.4458 84.0985 13.0225 84.5282 12.7652C84.9578 12.5093 85.3309 12.3813 85.6434 12.3813H90.2953V20.3861H94.9503V7.18119H97.4933V3.64063H45.6932Z" fill="white"/>
</g>
</g>
</g>
</svg>
