<svg width="32" height="32" viewBox="0 0 32 32" fill="none" xmlns="http://www.w3.org/2000/svg">
<g id="Star">
<path id="Star 2" d="M15.2564 1.87069C15.6794 1.07429 16.8206 1.07429 17.2436 1.87069L20.8248 8.61351C20.9874 8.91967 21.2821 9.13377 21.6235 9.19381L29.143 10.5161C30.0311 10.6723 30.3838 11.7576 29.757 12.406L24.4509 17.8956C24.21 18.1449 24.0974 18.4913 24.1458 18.8345L25.2119 26.3946C25.3378 27.2875 24.4146 27.9583 23.6042 27.5626L16.7436 24.2125C16.4321 24.0604 16.0679 24.0604 15.7564 24.2125L8.89575 27.5626C8.08543 27.9583 7.16223 27.2875 7.28814 26.3946L8.35419 18.8345C8.40259 18.4913 8.29003 18.1449 8.0491 17.8956L2.74296 12.406C2.11625 11.7576 2.46888 10.6723 3.35702 10.5161L10.8765 9.19381C11.2179 9.13377 11.5126 8.91967 11.6752 8.61351L15.2564 1.87069Z" fill="#070B23"/>
<mask id="mask0_597_725" style="mask-type:alpha" maskUnits="userSpaceOnUse" x="0" y="0" width="20" height="32">
<rect id="Rectangle 1" x="0.5" width="18.5625" height="31.5" fill="#D9D9D9"/>
</mask>
<g mask="url(#mask0_597_725)">
<path id="Star 1" d="M15.2564 1.87069C15.6794 1.07429 16.8206 1.07429 17.2436 1.87069L20.8248 8.61351C20.9874 8.91967 21.2821 9.13377 21.6235 9.19381L29.143 10.5161C30.0311 10.6723 30.3838 11.7576 29.757 12.406L24.4509 17.8956C24.21 18.1449 24.0974 18.4913 24.1458 18.8345L25.2119 26.3946C25.3378 27.2875 24.4146 27.9583 23.6042 27.5626L16.7436 24.2125C16.4321 24.0604 16.0679 24.0604 15.7564 24.2125L8.89575 27.5626C8.08543 27.9583 7.16223 27.2875 7.28814 26.3946L8.35419 18.8345C8.40259 18.4913 8.29003 18.1449 8.0491 17.8956L2.74296 12.406C2.11625 11.7576 2.46888 10.6723 3.35702 10.5161L10.8765 9.19381C11.2179 9.13377 11.5126 8.91967 11.6752 8.61351L15.2564 1.87069Z" fill="#FCD503"/>
</g>
</g>
</svg>
