<svg width="32" height="33" viewBox="0 0 32 33" fill="none" xmlns="http://www.w3.org/2000/svg">
<g id="Star">
<path id="Star 1" d="M14.9925 2.60777C15.4062 1.77521 16.5938 1.77521 17.0075 2.60777L20.3859 9.40728C20.5497 9.73698 20.8644 9.96566 21.2286 10.0196L28.7393 11.1314C29.6589 11.2676 30.026 12.3971 29.362 13.0478L23.9392 18.362C23.6763 18.6196 23.5561 18.9897 23.6173 19.3527L24.8808 26.8394C25.0355 27.7561 24.0747 28.4542 23.2507 28.0237L16.5208 24.5086C16.1945 24.3381 15.8055 24.3381 15.4792 24.5086L8.74935 28.0237C7.92532 28.4542 6.96447 27.7561 7.11918 26.8394L8.38268 19.3527C8.44395 18.9897 8.32372 18.6196 8.06078 18.362L2.63804 13.0478C1.97405 12.3971 2.34106 11.2676 3.2607 11.1314L10.7714 10.0196C11.1356 9.96566 11.4503 9.73698 11.6141 9.40728L14.9925 2.60777Z" fill="#FCD503"/>
</g>
</svg>
