<svg  xmlns="http://www.w3.org/2000/svg" width="131" height="40" viewBox="0 0 131 40" fill="none">
                          <g clip-path="url(#clip0_2680_23952)">
                              <path d="M20.5866 0.340088C23.8153 0.340088 25.6478 3.06572 25.6478 6.10585C25.6478 10.8757 22.55 13.9683 16.9651 13.9683C16.1798 13.9683 15.3072 13.9158 14.3909 13.8635C14.3474 12.7627 14.3037 11.7144 14.3037 10.7709C14.3037 4.06163 16.8779 0.340088 20.5866 0.340088Z" fill="#87D447" />
                              <path d="M20.5866 30.7414C16.8779 30.7414 14.3037 27.0198 14.3037 20.3106C14.3037 19.3672 14.3474 18.3188 14.391 17.2181C15.3073 17.1656 16.1798 17.1133 16.9652 17.1133C22.55 17.1133 25.6479 20.2057 25.6479 24.9756C25.6479 28.0157 23.8153 30.7414 20.5866 30.7414Z" fill="#50AFCD" />
                              <path d="M5.40301 30.7414C2.1743 30.7414 0.341797 28.0157 0.341797 24.9756C0.341797 20.2057 3.43961 17.1133 9.0244 17.1133C9.80976 17.1133 10.6824 17.1656 11.5986 17.2181C11.6423 18.3188 11.6859 19.3672 11.6859 20.3106C11.6859 27.0198 9.11166 30.7414 5.40301 30.7414Z" fill="#EFAA02" />
                              <path d="M5.40301 0.340088C9.11166 0.340088 11.6859 4.06163 11.6859 10.7709C11.6859 11.7144 11.6423 12.7627 11.5986 13.8635C10.6824 13.9158 9.80976 13.9683 9.0244 13.9683C3.43961 13.9683 0.341797 10.8757 0.341797 6.10585C0.341797 3.06572 2.1743 0.340088 5.40301 0.340088Z" fill="#D95423" />
                              <path fill-rule="evenodd" clip-rule="evenodd" d="M41.1405 27.9447V28.4558C41.1405 29.5208 40.6813 30.7561 38.5617 30.7561C37.3961 30.7561 36.5836 30.2449 36.2303 29.0948C35.8064 30.1171 34.7466 30.7136 33.5102 30.7136C30.5077 30.7136 28.918 27.8168 28.918 20.2769C28.918 12.737 30.5077 9.84026 33.5102 9.84026C34.9232 9.84026 35.7357 10.5218 36.0184 11.3312V0.809372C36.0184 0.340788 36.301 0 36.6895 0H39.6922C40.0808 0 40.3633 0.340788 40.3633 0.809372V26.5814C40.3633 27.5612 40.6106 27.9447 41.1405 27.9447ZM34.9939 26.8372C35.4178 26.8372 35.7357 26.7094 36.0183 26.5391V14.0151C35.7357 13.8447 35.4178 13.7169 34.9939 13.7169C34.0048 13.7169 33.2629 14.2281 33.2629 20.2771C33.2629 26.2834 34.0048 26.8372 34.9939 26.8372ZM53.7516 28.4561V27.9449C53.2218 27.9449 52.9746 27.5614 52.9746 26.5817V15.8469C52.9746 11.6722 51.173 9.79791 47.7817 9.79791C44.8851 9.79791 42.6242 11.587 42.6242 15.6339C42.6242 16.4007 43.0835 16.6562 43.5074 16.6562H45.6975C46.1921 16.6562 46.3687 16.3154 46.3334 15.5061C46.2981 14.6116 46.4746 13.5466 47.6051 13.5466C48.6295 13.5466 48.8767 14.4411 48.8767 15.4636V18.6584C48.3116 18.5306 47.6757 18.4028 46.7573 18.4028C43.2954 18.4028 42.0236 21.3847 42.0236 24.537C42.0236 27.8171 43.0835 30.7563 45.9448 30.7563C47.4637 30.7563 48.5942 30.2026 49.0534 29.0524C49.3361 30.2452 49.9719 30.7563 51.1376 30.7563C53.2924 30.7563 53.7516 29.521 53.7516 28.4561ZM47.4637 27.3904C48.0289 27.433 48.4881 27.1774 48.8767 26.8367V21.4266C48.4881 21.384 48.1702 21.384 47.8523 21.384C46.5453 21.4266 46.1214 22.6193 46.1214 24.5789C46.1214 26.4532 46.5453 27.3052 47.4637 27.3904ZM59.6156 29.6913V10.8628C59.6156 10.3942 59.3331 10.0534 58.9445 10.0534H55.9418C55.5532 10.0534 55.2707 10.3942 55.2707 10.8628V29.6913C55.2707 30.1599 55.5532 30.5008 55.9418 30.5008H58.9445C59.3331 30.5008 59.6156 30.1599 59.6156 29.6913ZM57.4255 1.49089C58.6972 1.49089 59.6863 2.68364 59.6863 4.21719C59.6863 5.70813 58.6972 6.94349 57.4255 6.94349C56.1891 6.94349 55.1646 5.70813 55.1646 4.21719C55.1646 2.68364 56.1891 1.49089 57.4255 1.49089ZM66.2215 29.6911V0.809372C66.2215 0.340788 65.9389 0 65.5503 0H62.5477C62.1591 0 61.8765 0.340788 61.8765 0.809372V29.6911C61.8765 30.1598 62.1591 30.5006 62.5477 30.5006H65.5503C65.9389 30.5006 66.2215 30.1598 66.2215 29.6911ZM79.8924 10.8628V30.6286C79.8924 36.8479 77.9141 40.0002 73.2865 40.0002C72.0502 40.0002 69.7894 39.489 69.7894 38.5519V35.57C69.7894 35.144 69.966 34.931 70.2839 34.931C70.4958 34.931 70.8138 35.0588 71.1317 35.2291C71.591 35.4421 72.2268 35.6126 72.792 35.6126C74.9115 35.6126 75.5473 34.1216 75.5473 30.8416V29.2228C74.8762 29.9896 73.7104 30.7563 72.2621 30.7563C69.648 30.7563 68.447 28.882 68.447 25.4316V10.8628C68.447 10.3942 68.7296 10.0534 69.1181 10.0534H72.1208C72.5094 10.0534 72.792 10.3942 72.792 10.8628V25.3037C72.792 26.3687 73.1805 26.7947 73.9224 26.7947C74.3816 26.7947 75.0175 26.6242 75.5473 26.2834V10.8628C75.5473 10.3942 75.83 10.0534 76.2185 10.0534H79.2211C79.6097 10.0534 79.8924 10.3942 79.8924 10.8628ZM93.5985 29.6911V15.1224C93.5985 11.672 92.3974 9.79766 89.8188 9.79766C88.2997 9.79766 87.0987 10.7348 86.4981 11.5442V0.809372C86.4981 0.340788 86.2156 0 85.827 0H82.8243C82.4357 0 82.1532 0.340788 82.1532 0.809372V29.6911C82.1532 30.1598 82.4357 30.5006 82.8243 30.5006H85.827C86.2156 30.5006 86.4981 30.1598 86.4981 29.6911V14.2706C87.0634 13.9297 87.6992 13.7593 88.1585 13.7593C88.9003 13.7593 89.2535 14.1853 89.2535 15.2502V29.6911C89.2535 30.1598 89.5361 30.5006 89.9247 30.5006H92.9274C93.3159 30.5006 93.5985 30.1598 93.5985 29.6911ZM108.012 27.9448V28.456C108.012 29.521 107.552 30.7563 105.432 30.7563C104.232 30.7563 103.419 30.2026 103.066 29.0098C102.395 29.8618 101.193 30.7563 99.6035 30.7563C96.9902 30.7563 95.7886 28.882 95.7886 25.4316V10.8628C95.7886 10.3942 96.0717 10.0534 96.46 10.0534H99.4624C99.8516 10.0534 100.134 10.3942 100.134 10.8628V25.3037C100.134 26.3687 100.522 26.7947 101.264 26.7947C101.724 26.7947 102.359 26.6242 102.889 26.2834V10.8628C102.889 10.3942 103.171 10.0534 103.56 10.0534H106.563C106.951 10.0534 107.234 10.3942 107.234 10.8628V26.5817C107.234 27.5614 107.481 27.9448 108.012 27.9448ZM120.976 29.6914V15.1227C120.976 11.6722 119.774 9.79791 117.196 9.79791C115.57 9.79791 114.441 10.6925 113.77 11.5019C113.522 10.5221 112.78 10.0535 111.933 10.0535H110.202C109.813 10.0535 109.53 10.3943 109.53 10.8629V29.6914C109.53 30.16 109.813 30.5008 110.202 30.5008H113.204C113.592 30.5008 113.876 30.16 113.876 29.6914V14.2708C114.441 13.93 115.076 13.7596 115.535 13.7596C116.278 13.7596 116.631 14.1856 116.631 15.2506V29.6914C116.631 30.16 116.913 30.5008 117.302 30.5008H120.305C120.693 30.5008 120.976 30.16 120.976 29.6914ZM130.125 13.5466H128.324V25.6019C128.324 26.5817 128.535 27.0077 129.171 27.0077C129.444 27.0077 129.612 26.9451 129.877 26.8467C129.922 26.8303 129.968 26.8129 130.019 26.7947C130.069 26.7747 130.114 26.7548 130.158 26.7359C130.299 26.6742 130.413 26.6243 130.549 26.6243C130.831 26.6243 131.008 26.7947 131.008 27.3059V28.1578C131.008 29.0524 130.796 29.521 130.408 29.8192C129.453 30.5433 128.571 30.7989 127.228 30.7989C125.109 30.7989 123.979 29.4783 123.979 26.8372V13.5466H122.777C122.389 13.5466 122.106 13.2058 122.106 12.7372V10.8628C122.106 10.3942 122.389 10.0535 122.777 10.0535H123.979V5.9214C123.979 5.45282 124.261 5.11203 124.65 5.11203H127.652C128.041 5.11203 128.324 5.45282 128.324 5.9214V10.0535H130.125C130.514 10.0535 130.796 10.3942 130.796 10.8628V12.7372C130.796 13.2058 130.514 13.5466 130.125 13.5466Z" fill="#3C3C3C" />
                          </g>
                          <defs>
                              <clipPath id="clip0_2680_23952">
                                  <rect width="130.667" height="40" fill="white" transform="translate(0.341797)" />
                              </clipPath>
                          </defs>
                      </svg>