<svg  xmlns="http://www.w3.org/2000/svg" width="177" height="40" viewBox="0 0 177 40" fill="none">
                          <path d="M48.1685 0H0.496094V40H48.1685V0Z" fill="#D10014" />
                          <path d="M40.6379 34.4727C43.0995 34.4727 45.0944 32.5977 45.0944 30.2864C45.0944 27.9752 43.0995 26.1014 40.6392 26.1014C38.1777 26.1014 36.1828 27.9764 36.1828 30.2864C36.1828 32.5989 38.1777 34.4727 40.6379 34.4727ZM6.64918 5.70142H21.0221C25.6701 5.70142 28.8816 6.84267 30.9224 8.80017C32.7096 10.4339 33.6146 12.6377 33.6146 15.4502V15.5302C33.6146 19.8964 31.1396 22.7914 27.3629 24.3002L34.6154 34.2514H24.8878L18.7588 25.6164H15.0739V34.2639H6.64648L6.64918 5.70142ZM20.631 19.4027C23.4958 19.4027 25.1495 18.0977 25.1495 16.0189V15.9364C25.1495 13.6939 23.4095 12.5527 20.5878 12.5527H15.0739V19.4027H20.631Z" fill="white" />
                          <path d="M176.342 0H52.915V40H176.342V0Z" fill="#D10014" />
                          <path d="M79.9615 5.4607V11.6182H84.9264V18.6469H76.1497V12.1544C76.1497 10.0132 75.3674 8.36195 73.8014 7.2007C72.2355 6.0382 70.2743 5.45945 67.9166 5.4607H59.0684L60.4307 11.6182H66.8942C67.3487 11.6182 67.5753 11.7307 67.5753 11.9532V18.6469H66.8942C65.5777 18.6469 64.6147 19.0257 64.005 19.7844C63.394 20.5432 63.0878 21.5694 63.0838 22.8632C63.0838 23.3532 63.2996 24.0119 63.7312 24.8382C64.2087 25.7244 64.8278 26.5382 65.5683 27.2469C66.3992 28.0542 67.3646 28.7324 68.4278 29.2557C69.5681 29.8202 70.8443 30.1074 72.137 30.0907C73.676 30.0907 74.7308 29.6669 75.2986 28.8194C75.8582 27.9984 76.1538 27.0467 76.1511 26.0757V25.4032H84.9264V34.5707H93.0247V11.6182H99.2738V34.5757H107.372V11.6182H122.342V16.4382C122.347 16.8507 122.324 17.2657 122.272 17.6757C122.226 18.0094 121.977 18.1769 121.525 18.1769C121.161 18.1769 120.663 17.9544 120.028 17.5094C119.38 17.0529 118.808 16.5113 118.328 15.9019L117.725 15.1019L111.737 19.5832C113.099 21.4244 114.529 23.2213 116.025 24.9707C117.428 26.6245 118.879 28.2426 120.377 29.8232C121.929 31.4831 123.517 33.1126 125.143 34.7107L131.606 30.3594C130.855 29.6677 130.129 28.9536 129.428 28.2182C128.791 27.5932 128.101 26.8794 127.353 26.0757C126.589 25.253 125.83 24.4272 125.074 23.5982C126.518 23.4845 127.892 22.9725 129.019 22.1282C130.153 21.2794 130.766 20.1194 130.859 18.6469V11.6182H157.53V13.9607H148.072C146.498 13.9296 144.937 14.2377 143.512 14.8607C142.265 15.4174 141.145 16.1905 140.212 17.1382C139.349 18.0196 138.669 19.0403 138.205 20.1494C137.771 21.1625 137.544 22.241 137.533 23.3307C137.533 25.9657 138.462 28.4307 140.321 30.7282C142.179 33.0257 144.924 34.6219 148.554 35.5194L153.385 29.6319C152.503 29.4008 151.648 29.0858 150.835 28.6919C150.027 28.3115 149.273 27.84 148.59 27.2882C147.957 26.7807 147.417 26.1812 146.991 25.5132C146.599 24.9178 146.387 24.2356 146.378 23.5382C146.378 22.5132 146.753 21.7769 147.501 21.3294C148.248 20.8844 148.897 20.6619 149.44 20.6619H157.53V34.5832H165.626V11.6182H170.049V5.4607H79.9615Z" fill="white" />
                      </svg>